<svg width="136" height="40" viewBox="0 0 136 40" fill="none" xmlns="http://www.w3.org/2000/svg">
<g clip-path="url(#clip0_3304_4)">
<path fill-rule="evenodd" clip-rule="evenodd" d="M40.3749 39.7958H-0.000164032L39.4134 0.336143L40.7969 1.72124L15.7447 26.8027L39.4862 7.78366L40.6906 9.31834L14.5951 30.2922L39.6322 15.2561L40.6541 16.9552L13.6097 33.1789L39.9059 22.6919L40.5629 24.4824L13.0804 35.5723L40.1066 30.2009L40.4716 32.101L12.3322 37.8012H40.3804L40.3749 39.7958Z" fill="#FF4F2D"/>
<path d="M46.3077 5.63308L45.9836 0.00119209H48.3448L47.9976 5.63308H46.3077Z" fill="#FF4F2D"/>
<path d="M48.0902 16.3407L53.4145 1.04417H57.0953L62.4197 16.3407H59.688L55.4054 3.10688H55.1045L50.8218 16.3407H48.0902ZM50.7524 13.0496V11.1955H60.0816V13.0496H50.7524Z" fill="#FF4F2D"/>
<path d="M66.5866 16.3407V1.04417H69.133V16.3407H66.5866ZM62.003 3.22277V1.04417H73.7397V3.22277H62.003Z" fill="#FF4F2D"/>
<path d="M76.1704 16.3407V1.04417H78.6937V16.3407H76.1704ZM77.652 16.3407V14.2084H87.2359V16.3407H77.652ZM77.652 9.54996V7.57995H86.1247V9.54996H77.652ZM77.652 3.15324V1.04417H87.2127V3.15324H77.652Z" fill="#FF4F2D"/>
<path d="M90.037 16.3407V1.04417H92.5603V16.3407H90.037ZM90.7083 16.3407V14.1621H99.4588V16.3407H90.7083Z" fill="#FF4F2D"/>
<path d="M104.366 1.04417H101.797V16.3407H104.366V1.04417Z" fill="#FF4F2D"/>
<path d="M108.14 16.3407V1.04417H110.663V16.3407H108.14ZM109.621 16.3407V14.2084H119.205V16.3407H109.621ZM109.621 9.54996V7.57995H118.094V9.54996H109.621ZM109.621 3.15324V1.04417H119.182V3.15324H109.621Z" fill="#FF4F2D"/>
<path d="M122.006 16.3407V1.04417H127.608C128.396 1.04417 129.136 1.1137 129.784 1.22959C130.433 1.36865 131.011 1.55406 131.521 1.78582C132.03 2.04076 132.47 2.34206 132.817 2.71288C133.164 3.06053 133.442 3.47771 133.627 3.94124C133.789 4.42795 133.882 4.93783 133.882 5.51724C133.882 6.0503 133.812 6.56019 133.65 7.00054C133.465 7.44089 133.234 7.83489 132.91 8.15936C132.562 8.48384 132.169 8.76195 131.683 8.97054C131.197 9.17913 130.618 9.31819 129.97 9.4109V9.71219C130.618 9.78172 131.15 9.94396 131.567 10.1989C132.007 10.4307 132.354 10.7783 132.655 11.2418C132.933 11.7054 133.187 12.2848 133.396 13.0033L134.345 16.3407H131.59L130.849 13.2814C130.687 12.6556 130.456 12.1689 130.155 11.7981C129.854 11.4041 129.46 11.1491 128.997 10.9637C128.534 10.8015 128.002 10.7088 127.354 10.7088H124.53V16.3407H122.006ZM124.53 8.7156H127.423C128.696 8.7156 129.646 8.48384 130.294 8.02031C130.965 7.55678 131.289 6.8383 131.289 5.88807C131.289 4.93783 130.965 4.21936 130.34 3.75583C129.715 3.31547 128.766 3.08371 127.47 3.08371H124.53V8.7156Z" fill="#FF4F2D"/>
<path d="M48.5069 39.5172V37.3849H52.9979C53.9933 37.3849 54.8035 37.1763 55.4517 36.7128C56.0999 36.2724 56.5629 35.6235 56.887 34.8123C57.2111 34.0011 57.3731 33.0277 57.3731 31.9153C57.3731 30.9418 57.2574 30.1307 57.0722 29.4122C56.8638 28.7169 56.5629 28.1375 56.1462 27.6971C55.7526 27.2336 55.2202 26.9091 54.6183 26.6774C53.9933 26.4456 53.2525 26.3529 52.4191 26.3529H48.5069V24.2207H52.3497C54.109 24.2207 55.5674 24.5219 56.6786 25.1245C57.8129 25.7271 58.6463 26.5847 59.1788 27.7203C59.7112 28.8328 59.989 30.177 59.989 31.753C59.989 32.8191 59.8501 33.7926 59.6186 34.6269C59.3639 35.4844 59.0399 36.2029 58.6 36.8287C58.1833 37.4313 57.674 37.9412 57.0953 38.3352C56.5166 38.7292 55.8915 39.0304 55.197 39.239C54.5257 39.4244 53.8081 39.5172 53.0673 39.5172H48.5069ZM47.2336 39.5172V24.2207H49.7569V39.5172H47.2336Z" fill="#FF4F2D"/>
<path d="M69.6191 39.8184C68.7395 39.8184 67.9524 39.7257 67.2579 39.5403C66.5634 39.3549 65.9615 39.1 65.4291 38.7523C64.8967 38.4047 64.48 37.9643 64.1327 37.4776C63.7855 36.9677 63.5077 36.3883 63.3456 35.7626C63.1605 35.1136 63.0679 34.3951 63.0679 33.6303V24.2207H65.6143V33.5376C65.6143 34.4415 65.7532 35.1831 66.0541 35.7626C66.3551 36.3651 66.7949 36.8055 67.3968 37.0836C67.9987 37.3849 68.7163 37.5472 69.596 37.5472C70.4988 37.5472 71.2396 37.3849 71.8415 37.1068C72.4202 36.8055 72.8601 36.3651 73.161 35.7626C73.462 35.1831 73.6009 34.4415 73.6009 33.5376V24.2207H76.1241V33.6303C76.1241 35.6003 75.5917 37.13 74.4805 38.1961C73.3694 39.2854 71.7489 39.8184 69.6191 39.8184Z" fill="#FF4F2D"/>
<path d="M85.5228 39.5172V24.2207H91.3565C92.2362 24.2207 93.0464 24.2902 93.764 24.4524C94.4817 24.6147 95.0835 24.8464 95.5928 25.1709C96.1021 25.4954 96.4957 25.9125 96.7734 26.4224C97.0281 26.9323 97.167 27.5349 97.167 28.2534C97.167 28.856 97.0512 29.3658 96.8197 29.8062C96.5651 30.2465 96.1947 30.6174 95.6854 30.8955C95.1761 31.1968 94.5048 31.3822 93.6714 31.5213V31.8226C95.1067 31.9384 96.1484 32.3093 96.7966 32.9582C97.4679 33.584 97.792 34.4415 97.792 35.4844C97.792 36.3651 97.5837 37.0836 97.1438 37.6862C96.7271 38.2888 96.079 38.7292 95.2224 39.0536C94.3428 39.3549 93.2547 39.5172 91.9121 39.5172H85.5228ZM87.9304 37.4081H92.051C93.139 37.4081 93.9724 37.2459 94.5048 36.875C95.0372 36.5042 95.315 35.948 95.315 35.1831C95.315 34.3256 94.9446 33.6767 94.227 33.2363C93.5094 32.796 92.4214 32.5874 90.9629 32.5874H87.9304V37.4081ZM87.9304 30.826H90.5231C91.9352 30.826 92.9769 30.6405 93.6483 30.2697C94.3428 29.8757 94.69 29.2963 94.69 28.5315C94.69 27.7667 94.3891 27.2104 93.7872 26.8396C93.1853 26.4688 92.2825 26.3065 91.0787 26.3065H87.9304V30.826Z" fill="#FF4F2D"/>
<path d="M107.33 39.8184C106.218 39.8184 105.246 39.633 104.39 39.2854C103.533 38.9145 102.815 38.3815 102.214 37.7094C101.612 37.0141 101.172 36.2029 100.871 35.2295C100.57 34.2561 100.408 33.1668 100.408 31.9384C100.408 30.1538 100.709 28.6705 101.311 27.4653C101.913 26.2833 102.746 25.4026 103.788 24.8C104.853 24.2206 106.033 23.9193 107.376 23.9193C108.441 23.9193 109.39 24.1048 110.223 24.4524C111.08 24.8 111.797 25.3099 112.399 26.0052C113.024 26.6773 113.487 27.5117 113.811 28.5083C114.136 29.5049 114.298 30.6405 114.298 31.9152C114.298 33.1668 114.136 34.2792 113.835 35.2527C113.51 36.2261 113.071 37.0372 112.469 37.7325C111.867 38.4047 111.149 38.9145 110.27 39.2854C109.413 39.633 108.441 39.8184 107.33 39.8184ZM107.376 37.7094C108.302 37.7094 109.089 37.5008 109.737 37.0372C110.385 36.5969 110.871 35.9479 111.219 35.1136C111.543 34.2561 111.728 33.2363 111.728 32.0079C111.728 30.7564 111.543 29.6903 111.196 28.8096C110.848 27.9289 110.362 27.2568 109.691 26.7932C109.043 26.3297 108.256 26.0748 107.33 26.0748C106.427 26.0748 105.663 26.3065 105.015 26.77C104.343 27.2104 103.857 27.8825 103.51 28.7401C103.163 29.6208 102.977 30.6869 102.977 31.9384C102.977 32.8655 103.093 33.6767 103.278 34.3951C103.487 35.1136 103.765 35.7394 104.135 36.2261C104.505 36.7128 104.968 37.0836 105.501 37.3385C106.056 37.5935 106.681 37.7094 107.376 37.7094Z" fill="#FF4F2D"/>
<path d="M120.108 24.2207H117.539V39.5172H120.108V24.2207Z" fill="#FF4F2D"/>
<path d="M129.391 39.8184C128.396 39.8184 127.516 39.7257 126.729 39.5171C125.942 39.3085 125.294 39.0072 124.761 38.5901C124.229 38.1729 123.835 37.663 123.557 37.0372C123.28 36.4347 123.164 35.7162 123.164 34.9282L125.409 34.3256C125.386 35.0904 125.525 35.7394 125.849 36.2492C126.173 36.7591 126.659 37.1531 127.284 37.4081C127.933 37.6398 128.673 37.7789 129.507 37.7789C130.317 37.7789 131.011 37.6862 131.567 37.4776C132.123 37.269 132.539 36.9909 132.817 36.6432C133.118 36.2956 133.257 35.9016 133.257 35.4612C133.257 34.9514 133.072 34.5574 132.748 34.2561C132.4 33.9548 131.937 33.723 131.359 33.5376C130.803 33.3522 130.155 33.1899 129.437 33.0277C128.72 32.8655 128.002 32.7032 127.284 32.4946C126.567 32.2861 125.919 32.0311 125.34 31.7066C124.761 31.359 124.298 30.9418 123.951 30.4088C123.604 29.8989 123.442 29.2268 123.442 28.4156C123.442 27.4885 123.673 26.7005 124.136 26.0284C124.599 25.3563 125.247 24.8464 126.104 24.4756C126.96 24.1048 127.979 23.9193 129.16 23.9193C130.34 23.9193 131.359 24.1048 132.262 24.4524C133.141 24.8232 133.836 25.3331 134.345 26.0284C134.854 26.7237 135.132 27.5581 135.155 28.5315L132.84 29.1341C132.84 28.601 132.748 28.1375 132.562 27.7435C132.4 27.3495 132.146 27.0018 131.822 26.7469C131.498 26.4919 131.104 26.2833 130.664 26.1443C130.201 26.0052 129.692 25.9589 129.136 25.9589C128.488 25.9589 127.909 26.0516 127.4 26.237C126.914 26.4224 126.52 26.7005 126.266 27.025C125.988 27.3726 125.849 27.7666 125.849 28.207C125.849 28.7632 126.034 29.2036 126.451 29.5281C126.845 29.8525 127.354 30.0843 128.002 30.2929C128.65 30.4783 129.345 30.6637 130.085 30.8259C130.757 30.965 131.428 31.1272 132.076 31.3358C132.725 31.5212 133.326 31.7762 133.882 32.1006C134.438 32.4251 134.877 32.8423 135.202 33.3754C135.526 33.9084 135.688 34.5805 135.688 35.3917C135.688 36.2724 135.456 37.0604 134.993 37.7325C134.507 38.3815 133.813 38.8914 132.887 39.2622C131.961 39.633 130.78 39.8184 129.391 39.8184Z" fill="#FF4F2D"/>
</g>
<defs>
<clipPath id="clip0_3304_4">
<rect width="136" height="40" fill="white"/>
</clipPath>
</defs>
</svg>
