<svg width="339" height="101" viewBox="0 0 339 101" fill="none" xmlns="http://www.w3.org/2000/svg">
<g clip-path="url(#clip0_3304_154)">
<path fill-rule="evenodd" clip-rule="evenodd" d="M100.64 99.8423H-0.000411987L98.2437 1.19312L101.692 4.65584L39.2461 67.3595L98.4251 19.8119L101.427 23.6486L36.3804 76.0834L98.789 38.4929L101.336 42.7407L33.9241 83.3L99.4713 57.0826L101.109 61.5588L32.6049 89.2834L99.9717 75.855L100.881 80.6052L30.7399 94.8558H100.654L100.64 99.8423Z" fill="#DDD9D6"/>
<path d="M115.429 14.4354L114.621 0.355713H120.507L119.641 14.4354H115.429Z" fill="#DDD9D6"/>
<path d="M119.872 41.2044L133.144 2.96313H142.318L155.59 41.2044H148.781L138.106 8.11991H137.356L126.681 41.2044H119.872ZM126.508 32.9767V28.3414H149.762V32.9767H126.508Z" fill="#DDD9D6"/>
<path d="M165.977 41.2044V2.96313H172.324V41.2044H165.977ZM154.552 8.40962V2.96313H183.807V8.40962H154.552Z" fill="#DDD9D6"/>
<path d="M189.866 41.2044V2.96313H196.156V41.2044H189.866ZM193.559 41.2044V35.8738H217.448V41.2044H193.559ZM193.559 24.2276V19.3026H214.679V24.2276H193.559ZM193.559 8.23579V2.96313H217.391V8.23579H193.559Z" fill="#DDD9D6"/>
<path d="M224.43 41.2044V2.96313H230.72V41.2044H224.43ZM226.104 41.2044V35.7579H247.916V41.2044H226.104Z" fill="#DDD9D6"/>
<path d="M260.149 2.96313H253.744V41.2044H260.149V2.96313Z" fill="#DDD9D6"/>
<path d="M269.554 41.2044V2.96313H275.844V41.2044H269.554ZM273.247 41.2044V35.8738H297.137V41.2044H273.247ZM273.247 24.2276V19.3026H294.367V24.2276H273.247ZM273.247 8.23579V2.96313H297.079V8.23579H273.247Z" fill="#DDD9D6"/>
<path d="M304.119 41.2044V2.96313H318.083C320.045 2.96313 321.891 3.13696 323.507 3.42667C325.123 3.77431 326.565 4.23784 327.835 4.81726C329.104 5.45461 330.201 6.20785 331.066 7.13491C331.932 8.00403 332.624 9.04697 333.086 10.2058C333.49 11.4226 333.72 12.6973 333.72 14.1458C333.72 15.4785 333.547 16.7532 333.143 17.854C332.682 18.9549 332.105 19.9399 331.297 20.7511C330.431 21.5623 329.45 22.2576 328.239 22.7791C327.027 23.3005 325.584 23.6482 323.969 23.8799V24.6332C325.584 24.807 326.911 25.2126 327.95 25.8499C329.047 26.4294 329.912 27.2985 330.662 28.4573C331.355 29.6161 331.989 31.0647 332.509 32.8608L334.875 41.2044H328.008L326.161 33.5561C325.757 31.9917 325.18 30.775 324.43 29.8479C323.68 28.8629 322.699 28.2255 321.545 27.762C320.391 27.3564 319.064 27.1247 317.448 27.1247H310.408V41.2044H304.119ZM310.408 22.1417H317.621C320.795 22.1417 323.161 21.5623 324.776 20.4035C326.45 19.2446 327.258 17.4485 327.258 15.0729C327.258 12.6973 326.45 10.9011 324.892 9.74227C323.334 8.64138 320.968 8.06197 317.737 8.06197H310.408V22.1417Z" fill="#DDD9D6"/>
<path d="M120.91 99.1455V93.8149H132.105C134.586 93.8149 136.606 93.2935 138.221 92.1347C139.837 91.0338 140.991 89.4114 141.799 87.3835C142.607 85.3555 143.011 82.922 143.011 80.1408C143.011 77.7073 142.722 75.6793 142.261 73.8831C141.741 72.1449 140.991 70.6964 139.953 69.5955C138.972 68.4367 137.644 67.6255 136.144 67.0461C134.586 66.4667 132.74 66.2349 130.662 66.2349H120.91V60.9043H130.489C134.875 60.9043 138.51 61.6575 141.28 63.164C144.107 64.6705 146.185 66.8143 147.512 69.6534C148.839 72.4346 149.531 75.7952 149.531 79.7352C149.531 82.4005 149.185 84.834 148.608 86.9199C147.973 89.0638 147.166 90.8599 146.069 92.4244C145.03 93.9308 143.761 95.2055 142.318 96.1905C140.876 97.1755 139.318 97.9288 137.587 98.4502C135.913 98.9138 134.125 99.1455 132.278 99.1455H120.91ZM117.737 99.1455V60.9043H124.026V99.1455H117.737Z" fill="#DDD9D6"/>
<path d="M173.536 99.8988C171.343 99.8988 169.381 99.667 167.65 99.2035C165.919 98.74 164.419 98.1026 163.092 97.2335C161.764 96.3644 160.726 95.2635 159.86 94.0467C158.995 92.772 158.302 91.3235 157.898 89.7591C157.437 88.1367 157.206 86.3405 157.206 84.4285V60.9043H163.553V84.1967C163.553 86.4564 163.899 88.3105 164.65 89.7591C165.4 91.2655 166.496 92.3664 167.996 93.0617C169.497 93.8149 171.286 94.2205 173.478 94.2205C175.729 94.2205 177.575 93.8149 179.075 93.1197C180.518 92.3664 181.614 91.2655 182.365 89.7591C183.115 88.3105 183.461 86.4564 183.461 84.1967V60.9043H189.751V84.4285C189.751 89.3535 188.423 93.1776 185.654 95.8429C182.884 98.5661 178.845 99.8988 173.536 99.8988Z" fill="#DDD9D6"/>
<path d="M213.178 99.1455V60.9043H227.719C229.912 60.9043 231.932 61.0781 233.721 61.4837C235.509 61.8893 237.01 62.4687 238.279 63.2799C239.549 64.0911 240.53 65.134 241.222 66.4087C241.857 67.6834 242.203 69.1899 242.203 70.9861C242.203 72.4926 241.914 73.7673 241.337 74.8681C240.703 75.969 239.779 76.8961 238.51 77.5914C237.24 78.3446 235.567 78.8082 233.49 79.1558V79.909C237.067 80.1987 239.664 81.1258 241.28 82.7482C242.953 84.3126 243.761 86.4564 243.761 89.0638C243.761 91.2655 243.242 93.0617 242.145 94.5682C241.107 96.0747 239.491 97.1755 237.356 97.9867C235.163 98.74 232.451 99.1455 229.104 99.1455H213.178ZM219.179 93.8729H229.451C232.163 93.8729 234.24 93.4673 235.567 92.5402C236.894 91.6132 237.587 90.2226 237.587 88.3105C237.587 86.1667 236.663 84.5443 234.875 83.4435C233.086 82.3426 230.374 81.8211 226.738 81.8211H219.179V93.8729ZM219.179 77.4176H225.642C229.162 77.4176 231.759 76.954 233.432 76.027C235.163 75.042 236.029 73.5934 236.029 71.6814C236.029 69.7693 235.279 68.3787 233.778 67.4517C232.278 66.5246 230.028 66.119 227.027 66.119H219.179V77.4176Z" fill="#DDD9D6"/>
<path d="M267.535 99.8988C264.765 99.8988 262.341 99.4353 260.206 98.5662C258.071 97.6391 256.283 96.3065 254.782 94.6262C253.282 92.8879 252.186 90.86 251.436 88.4265C250.685 85.9929 250.281 83.2697 250.281 80.1988C250.281 75.7373 251.032 72.0291 252.532 69.0161C254.032 66.0611 256.109 63.8594 258.706 62.3529C261.36 60.9044 264.303 60.1511 267.65 60.1511C270.305 60.1511 272.67 60.6147 274.748 61.4838C276.883 62.3529 278.671 63.6276 280.172 65.3658C281.73 67.0461 282.884 69.132 283.692 71.6235C284.5 74.115 284.903 76.9541 284.903 80.1409C284.903 83.2697 284.5 86.0509 283.749 88.4844C282.942 90.9179 281.845 92.9459 280.345 94.6841C278.845 96.3644 277.056 97.6391 274.863 98.5662C272.728 99.4353 270.305 99.8988 267.535 99.8988ZM267.65 94.6262C269.958 94.6262 271.92 94.1047 273.536 92.9459C275.152 91.845 276.363 90.2227 277.229 88.1368C278.037 85.9929 278.498 83.4435 278.498 80.3726C278.498 77.2438 278.037 74.5785 277.171 72.3767C276.306 70.175 275.094 68.4947 273.42 67.3358C271.805 66.177 269.843 65.5397 267.535 65.5397C265.284 65.5397 263.38 66.1191 261.764 67.2779C260.091 68.3788 258.879 70.0591 258.014 72.2029C257.148 74.4047 256.687 77.07 256.687 80.1988C256.687 82.5165 256.975 84.5444 257.437 86.3406C257.956 88.1368 258.648 89.7012 259.572 90.9179C260.495 92.1347 261.649 93.0618 262.976 93.6991C264.361 94.3365 265.919 94.6262 267.65 94.6262Z" fill="#DDD9D6"/>
<path d="M299.387 60.9043H292.982V99.1455H299.387V60.9043Z" fill="#DDD9D6"/>
<path d="M322.526 99.8988C320.045 99.8988 317.852 99.6671 315.89 99.1456C313.928 98.6241 312.313 97.8709 310.985 96.828C309.658 95.785 308.677 94.5103 307.985 92.9459C307.292 91.4394 307.004 89.6432 307.004 87.6732L312.601 86.1668C312.543 88.0788 312.89 89.7012 313.697 90.9759C314.505 92.2506 315.717 93.2356 317.275 93.873C318.891 94.4524 320.737 94.8 322.815 94.8C324.834 94.8 326.565 94.5682 327.95 94.0468C329.335 93.5253 330.374 92.83 331.066 91.9609C331.816 91.0918 332.163 90.1068 332.163 89.0059C332.163 87.7312 331.701 86.7462 330.893 85.9929C330.028 85.2397 328.873 84.6603 327.431 84.1968C326.046 83.7332 324.43 83.3276 322.641 82.922C320.853 82.5165 319.064 82.1109 317.275 81.5894C315.486 81.0679 313.871 80.4306 312.428 79.6194C310.985 78.7503 309.831 77.7073 308.966 76.3747C308.1 75.1 307.696 73.4197 307.696 71.3917C307.696 69.0741 308.273 67.1041 309.427 65.4238C310.581 63.7435 312.197 62.4688 314.332 61.5417C316.467 60.6147 319.006 60.1511 321.949 60.1511C324.892 60.1511 327.431 60.6147 329.681 61.4838C331.874 62.4108 333.605 63.6855 334.875 65.4238C336.144 67.162 336.837 69.2479 336.894 71.6814L331.124 73.1879C331.124 71.8553 330.893 70.6964 330.431 69.7114C330.028 68.7264 329.393 67.8573 328.585 67.22C327.777 66.5826 326.796 66.0611 325.7 65.7135C324.546 65.3658 323.276 65.25 321.891 65.25C320.276 65.25 318.833 65.4817 317.564 65.9452C316.352 66.4088 315.371 67.1041 314.736 67.9153C314.044 68.7844 313.697 69.7694 313.697 70.8703C313.697 72.2609 314.159 73.3617 315.198 74.1729C316.179 74.9841 317.448 75.5635 319.064 76.085C320.68 76.5485 322.411 77.012 324.257 77.4176C325.931 77.7653 327.604 78.1709 329.22 78.6923C330.835 79.1559 332.336 79.7932 333.721 80.6044C335.105 81.4156 336.202 82.4585 337.01 83.7912C337.817 85.1238 338.221 86.8041 338.221 88.8321C338.221 91.0338 337.644 93.0038 336.49 94.6841C335.279 96.3065 333.547 97.5812 331.239 98.5083C328.931 99.4353 325.988 99.8988 322.526 99.8988Z" fill="#DDD9D6"/>
</g>
<defs>
<clipPath id="clip0_3304_154">
<rect width="339" height="100" fill="white" transform="translate(0 0.352783)"/>
</clipPath>
</defs>
</svg>
