<svg width="100" height="80" viewBox="0 0 100 80" fill="none" xmlns="http://www.w3.org/2000/svg">
<g clip-path="url(#clip0_3408_592)">
<mask id="mask0_3408_592" style="mask-type:luminance" maskUnits="userSpaceOnUse" x="26" y="11" width="47" height="59">
<path d="M26.5249 11.6H72.7999V70H26.5249V11.6Z" fill="white"/>
</mask>
<g mask="url(#mask0_3408_592)">
<path d="M65.5187 52.6156C58.6531 58.525 50.5 58.6313 49.9656 58.6313C49.9062 58.6313 49.9312 58.6313 49.925 58.6313C49.9187 58.6313 49.9125 58.6313 49.9094 58.6313C49.85 58.6156 41.3937 58.6969 34.3312 52.6156C30.1594 49.0219 28.4031 44.8719 28.8656 42.7938C29.025 42.0781 29.4 41.975 29.5219 41.9406C30.0187 41.7906 30.9344 42.4375 32.1 43.2406C35.0312 45.2656 39.9406 48.6594 49.925 48.6594C57.5094 48.6594 62.1625 46.7 65.2469 44.8719H65.25C65.2531 44.8719 65.2531 44.8688 65.2531 44.8688C66.2281 44.2906 67.0469 43.725 67.75 43.2406C68.9156 42.4375 69.8281 41.7906 70.3281 41.9406C70.45 41.975 70.825 42.0781 70.9844 42.7938C71.4469 44.8719 69.6906 49.0219 65.5187 52.6156ZM58.6219 68.25H41.2281C44.9125 66.6656 48.3656 64.925 49.925 63.4438C51.4844 64.925 54.9375 66.6656 58.6219 68.25ZM34.9312 30.3156C31.4844 26.9531 29.5187 23.15 29.5406 19.8844C29.5531 18.1563 30.1156 16.7188 31.1687 15.7188C34.9406 12.1406 38.2781 13.925 42.1437 15.9938C44.5937 17.3063 47.1281 18.6625 49.925 18.6625C52.7188 18.6625 55.2531 17.3063 57.7062 15.9938C61.5688 13.9219 64.9062 12.1375 68.6813 15.7188C69.7344 16.7188 70.2969 18.1563 70.3094 19.8844C70.3312 23.15 68.3656 26.9531 64.9188 30.3156C60.1406 34.9688 62.5906 41.5219 63.6469 43.7656C60.7438 45.3563 56.5062 46.9094 49.925 46.9094C43.3438 46.9094 39.1062 45.3563 36.2031 43.7656C37.2594 41.5219 39.7094 34.9688 34.9312 30.3156ZM72.6844 42.4094C72.4344 41.2875 71.7625 40.5219 70.7906 40.2531C69.5094 39.9094 68.3563 40.6969 66.7625 41.8C66.2875 42.1281 65.7531 42.4938 65.1531 42.8781C64.2125 40.85 62.2313 35.3719 66.1344 31.5688C69.9781 27.8219 72.0781 23.6688 72.0531 19.8719C72.0375 17.6875 71.2656 15.7625 69.8813 14.45C65.1938 10.0063 60.7812 12.3656 56.8844 14.45C54.6219 15.6625 52.2844 16.9156 49.925 16.9156C47.5625 16.9156 45.225 15.6625 42.9656 14.45C39.075 12.3688 34.6625 10 29.9687 14.45C28.5844 15.7625 27.8125 17.6875 27.7969 19.8719C27.7719 23.6688 29.8719 27.8219 33.7156 31.5688C37.6625 35.4156 35.6625 40.8563 34.7031 42.8813C34.1 42.4969 33.5625 42.1281 33.0875 41.8C31.4937 40.6938 30.3406 39.9063 29.0594 40.2531C28.0875 40.5219 27.4156 41.2875 27.1656 42.4094C26.575 45.0531 28.4594 49.8594 33.1969 53.9406C39.4812 59.3563 46.5906 60.2219 49.0531 60.3563V61.9C48.5094 63.0375 42.1219 66.1031 36.4594 68.3094C36.0719 68.4625 35.8437 68.8719 35.9219 69.2844C35.9969 69.7 36.3594 70 36.7781 70H63.0719C63.4906 70 63.8531 69.7 63.9281 69.2844C64.0062 68.8719 63.7781 68.4625 63.3906 68.3094C57.6938 66.0875 51.2531 62.9969 50.7969 61.9813V60.3563C53.2594 60.2219 60.3656 59.3563 66.65 53.9438C71.3906 49.8625 73.275 45.0531 72.6844 42.4094Z" fill="#1E1E1E"/>
</g>
</g>
<defs>
<clipPath id="clip0_3408_592">
<rect width="60" height="60" fill="white" transform="translate(20 10)"/>
</clipPath>
</defs>
</svg>
