<svg width="100" height="80" viewBox="0 0 100 80" fill="none" xmlns="http://www.w3.org/2000/svg">
<mask id="mask0_3408_572" style="mask-type:luminance" maskUnits="userSpaceOnUse" x="21" y="0" width="58" height="80">
<path d="M21.25 0H78.85V80H21.25V0Z" fill="white"/>
</mask>
<g mask="url(#mask0_3408_572)">
<path d="M21.25 0V73.5H27.2625V80H32.1458V73.375H67.9542V80H72.8375V73.375H78.85V0H21.25ZM30.7667 78.625H28.7625V73.5H30.7667V78.625ZM32.1458 71.875H22.7542V10.75H49.3V71.875H32.1458ZM71.3375 78.625H69.3333V73.5H71.3375V78.625ZM77.3458 71.875H50.8V10.75H77.3458V71.875ZM50.8 9.25H22.7542V1.375H77.4708V9.25H50.8Z" fill="#1E1E1E"/>
</g>
<path d="M44.9168 35.125C43.5376 35.125 42.4126 36.25 42.4126 37.625C42.4126 39 43.5376 40.125 44.9168 40.125C46.2918 40.125 47.4209 39 47.4209 37.625C47.4209 36.125 46.2918 35.125 44.9168 35.125ZM44.9168 38.875C44.1668 38.875 43.5376 38.25 43.5376 37.5C43.5376 36.75 44.1668 36.125 44.9168 36.125C45.6668 36.125 46.2918 36.75 46.2918 37.5C46.2918 38.25 45.6668 38.875 44.9168 38.875Z" fill="#1E1E1E"/>
<path d="M55.1834 40C56.5625 40 57.6875 38.875 57.6875 37.5C57.6875 36.125 56.5625 35 55.1834 35C53.8084 35 52.6792 36.125 52.6792 37.5C52.6792 38.875 53.8084 40 55.1834 40ZM55.1834 36.125C55.9334 36.125 56.5625 36.75 56.5625 37.5C56.5625 38.25 55.9334 38.875 55.1834 38.875C54.4334 38.875 53.8084 38.25 53.8084 37.5C53.8084 36.75 54.4334 36.125 55.1834 36.125Z" fill="#1E1E1E"/>
</svg>
