<svg width="100" height="80" viewBox="0 0 100 80" fill="none" xmlns="http://www.w3.org/2000/svg">
<mask id="mask0_3408_611" style="mask-type:luminance" maskUnits="userSpaceOnUse" x="10" y="24" width="80" height="6">
<path d="M10 24.7H90V29.8667H10V24.7Z" fill="white"/>
</mask>
<g mask="url(#mask0_3408_611)">
<path d="M87.6332 24.7458C83.0707 24.7458 78.5124 24.7458 73.9499 24.7458C64.3207 24.7458 54.6916 24.7458 45.0624 24.7458C36.4541 24.7458 27.8416 24.7458 19.2332 24.7458C17.2124 24.7458 15.1916 24.7458 13.1707 24.7458C12.0416 24.7458 11.0707 25.125 10.6166 26.2708C9.99573 27.8458 11.4999 29.1583 12.9666 29.1583C18.4582 29.1583 23.9499 29.1583 29.4416 29.1583C39.2666 29.1583 49.0957 29.1583 58.9249 29.1583C66.9999 29.1583 75.0791 29.1583 83.1582 29.1583C84.5041 29.1583 85.8457 29.1583 87.1916 29.1583C87.6457 29.1583 88.0541 29.1542 88.4957 28.9792C89.4041 28.625 89.9874 27.6042 89.8291 26.65C89.6457 25.5333 88.7541 24.8042 87.6332 24.7458C87.1416 24.7167 87.1416 25.4792 87.6332 25.5083C89.5124 25.6083 89.5207 28.3958 87.6207 28.3958C87.4957 28.3958 87.3707 28.3958 87.2457 28.3958C86.5291 28.3958 85.8082 28.3958 85.0916 28.3958C82.1249 28.3958 79.1582 28.3958 76.1874 28.3958C66.7791 28.3958 57.3707 28.3958 47.9624 28.3958C38.9916 28.3958 30.0249 28.3958 21.0582 28.3958C18.6416 28.3958 16.2249 28.3958 13.8082 28.3958C13.4499 28.3958 13.0916 28.3958 12.7332 28.3958C10.8457 28.3958 10.8499 25.5083 12.7374 25.5083C12.8499 25.5083 12.9624 25.5083 13.0707 25.5083C18.7457 25.5083 24.4207 25.5083 30.0957 25.5083C39.9541 25.5083 49.8124 25.5083 59.6707 25.5083C67.6249 25.5083 75.5832 25.5083 83.5374 25.5083C84.9041 25.5083 86.2707 25.5083 87.6332 25.5083C88.1291 25.5083 88.1291 24.7458 87.6332 24.7458Z" fill="#1E1E1E"/>
</g>
<path d="M80.9041 28.3958C75.6083 28.3958 70.3124 28.3958 65.0208 28.3958C55.1749 28.3958 45.3291 28.3958 35.4833 28.3958C30.1416 28.3958 24.8041 28.3958 19.4624 28.3958C19.2541 28.3958 19.0791 28.5667 19.0791 28.775C19.0791 29.4667 19.0791 30.1625 19.0791 30.8542C19.0791 31.0625 19.2541 31.2375 19.4624 31.2375C24.7583 31.2375 30.0499 31.2375 35.3458 31.2375C45.1916 31.2375 55.0374 31.2375 64.8833 31.2375C70.2208 31.2375 75.5624 31.2375 80.9041 31.2375C81.1124 31.2375 81.2874 31.0625 81.2874 30.8542C81.2874 30.1625 81.2874 29.4667 81.2874 28.775C81.2874 28.2833 80.5208 28.2833 80.5208 28.775C80.5208 29.4667 80.5208 30.1625 80.5208 30.8542C80.6458 30.7292 80.7749 30.6 80.9041 30.475C75.6083 30.475 70.3124 30.475 65.0208 30.475C55.1749 30.475 45.3291 30.475 35.4833 30.475C30.1416 30.475 24.8041 30.475 19.4624 30.475C19.5916 30.6 19.7166 30.7292 19.8458 30.8542C19.8458 30.1625 19.8458 29.4667 19.8458 28.775C19.7166 28.9042 19.5916 29.0292 19.4624 29.1583C24.7583 29.1583 30.0499 29.1583 35.3458 29.1583C45.1916 29.1583 55.0374 29.1583 64.8833 29.1583C70.2208 29.1583 75.5624 29.1583 80.9041 29.1583C81.3958 29.1583 81.3958 28.3958 80.9041 28.3958Z" fill="#1E1E1E"/>
<path d="M82.0083 51.2C79.7666 44.45 77.5291 37.6958 75.2874 30.9417C75.2666 30.8792 75.2458 30.8167 75.2249 30.7542C75.1708 30.5917 75.0333 30.475 74.8541 30.475C73.5666 30.475 72.2791 30.475 70.9916 30.475C70.7416 30.475 70.5541 30.7167 70.6208 30.9583C71.4499 33.9708 72.5999 36.9292 73.5833 39.8958C74.8999 43.8625 76.2166 47.8333 77.5291 51.8C77.7499 52.4542 77.9166 53.0625 78.4583 53.5542C80.1416 55.0875 82.5416 53.1875 82.0083 51.2C81.8791 50.725 81.1416 50.9292 81.2666 51.4042C81.7666 53.2708 79.0916 54.0667 78.4833 52.2417C78.3458 51.8292 78.2083 51.4167 78.0749 51.0042C77.4666 49.175 76.8624 47.35 76.2541 45.5208C74.8249 41.2125 73.3999 36.9042 71.9708 32.5958C71.7666 31.9875 71.5333 31.375 71.3583 30.7542C71.2374 30.9167 71.1124 31.075 70.9916 31.2375C72.2791 31.2375 73.5666 31.2375 74.8541 31.2375C74.7333 31.1417 74.6083 31.05 74.4874 30.9583C76.7249 37.7083 78.9666 44.4625 81.2041 51.2125C81.2249 51.2792 81.2458 51.3417 81.2666 51.4042C81.4208 51.8667 82.1624 51.6708 82.0083 51.2Z" fill="#1E1E1E"/>
<path d="M27.6917 30.7542C25.4542 37.5042 23.2125 44.2583 20.975 51.0125C20.7167 51.7833 20.75 52.6667 21.3334 53.3C22.4209 54.4792 24.2667 54.2417 25.025 52.8333C25.4792 51.9833 25.6834 50.9083 25.9834 50C27.45 45.5792 28.9167 41.1625 30.3792 36.7458C31.0167 34.825 31.7584 32.9083 32.3 30.9583C32.3667 30.7167 32.1792 30.475 31.9292 30.475C30.6417 30.475 29.35 30.475 28.0625 30.475C27.5667 30.475 27.5667 31.2375 28.0625 31.2375C29.35 31.2375 30.6417 31.2375 31.9292 31.2375C31.8042 31.075 31.6834 30.9167 31.5584 30.7542C30.725 33.7667 29.5792 36.725 28.5959 39.6917C27.2792 43.6625 25.9625 47.6292 24.65 51.5958C24.5667 51.8458 24.4834 52.0958 24.4 52.3417C23.7875 54.1917 21.0834 53.1083 21.6875 51.2958C22.1042 50.0417 22.5167 48.7875 22.9334 47.5333C24.4125 43.0708 25.8917 38.6125 27.3709 34.15C27.725 33.0875 28.0792 32.0208 28.4334 30.9583C28.5875 30.4875 27.8459 30.2875 27.6917 30.7542Z" fill="#1E1E1E"/>
</svg>
