<svg width="100" height="80" viewBox="0 0 100 80" fill="none" xmlns="http://www.w3.org/2000/svg">
<mask id="mask0_3408_544" style="mask-type:luminance" maskUnits="userSpaceOnUse" x="30" y="10" width="41" height="60">
<path d="M30.0125 10H70.2125V70H30.0125V10Z" fill="white"/>
</mask>
<g mask="url(#mask0_3408_544)">
<path d="M69.8843 29.175V13.4219C69.8843 11.5312 67.975 10 65.6375 10H34.4812C32.1343 10 30.2343 11.5344 30.2343 13.4219V29.175C30.2656 29.5719 30.3593 29.9562 30.5187 30.3219C30.675 30.6875 30.8906 31.0188 31.1593 31.3156C31.4281 31.6125 31.7375 31.8563 32.0875 32.05C32.4406 32.2438 32.8125 32.375 33.2062 32.4438V42.1719C31.7687 42.2812 30.2312 42.6344 30.2312 43.6281V48.3563C30.2312 49.3531 31.7687 49.7031 33.2062 49.8156V69.3188C33.2062 69.5062 33.275 69.6656 33.4062 69.8C33.5406 69.9313 33.7031 70 33.8906 70C34.0812 70 34.2406 69.9313 34.375 69.8C34.5093 69.6656 34.575 69.5062 34.5781 69.3188V49.8563H36.5812V64.0875C36.5812 64.275 36.65 64.4375 36.7843 64.5688C36.9156 64.7031 37.0781 64.7687 37.2687 64.7687C37.4562 64.7687 37.6187 64.7031 37.7531 64.5688C37.8843 64.4375 37.9531 64.275 37.9531 64.0875V49.8563H62.1625V64.0875C62.1625 64.275 62.2281 64.4375 62.3625 64.5688C62.4968 64.7031 62.6562 64.7687 62.8468 64.7687C63.0343 64.7687 63.1968 64.7031 63.3312 64.5688C63.4625 64.4375 63.5312 64.275 63.5312 64.0875V49.8563H65.5437V69.3188C65.5406 69.5062 65.6093 69.6688 65.7437 69.8C65.875 69.9344 66.0375 70 66.2281 70C66.4156 70 66.5781 69.9344 66.7125 69.8C66.8437 69.6688 66.9125 69.5062 66.9125 69.3188V49.8094C68.35 49.6969 69.8875 49.3469 69.8875 48.3531V43.6219C69.8875 42.6281 68.35 42.2781 66.9125 42.1656V32.4438C67.3062 32.375 67.6781 32.2438 68.0312 32.05C68.3812 31.8563 68.6906 31.6125 68.9593 31.3156C69.2281 31.0188 69.4437 30.6875 69.6 30.3219C69.7593 29.9562 69.8531 29.5719 69.8843 29.175ZM31.6 29.175V13.4219C31.6 12.3094 32.9187 11.3625 34.4812 11.3625H65.6312C67.2218 11.3625 68.5125 12.2875 68.5125 13.4219V29.175C68.5125 30.3125 67.2218 31.2344 65.6312 31.2344H34.4812C32.8937 31.2344 31.6 30.3125 31.6 29.175ZM65.5375 42.1188H34.5781V32.5969H65.5375V42.1188ZM68.5125 48.1188C67.575 48.4125 66.6156 48.5406 65.6312 48.5H34.4812C33.5 48.5406 32.5375 48.4125 31.6 48.1188V43.8594C32.5375 43.5656 33.5 43.4406 34.4812 43.4813H65.6312C66.6156 43.4406 67.575 43.5656 68.5125 43.8594V48.1188Z" fill="#1E1E1E"/>
</g>
</svg>
